<svg width="24" height="25" viewBox="0 0 24 25" fill="none" xmlns="http://www.w3.org/2000/svg">
<g opacity="0.88">
<path d="M21.3085 11.7977V17.7977C21.365 18.3044 21.3105 18.8178 21.1492 19.2995C20.9879 19.7812 20.7239 20.2187 20.3769 20.5794C20.0299 20.94 19.609 21.2145 19.1456 21.3822C18.6822 21.5499 18.1883 21.6065 17.7009 21.5477H6.15658C5.66916 21.6065 5.17528 21.5499 4.71187 21.3822C4.24847 21.2145 3.82754 20.94 3.48057 20.5794C3.13361 20.2187 2.86959 19.7812 2.70827 19.2995C2.54694 18.8178 2.49249 18.3044 2.54899 17.7977V7.79773C2.49249 7.29107 2.54694 6.77769 2.70827 6.29599C2.86959 5.8143 3.13361 5.37675 3.48057 5.01609C3.82754 4.65543 4.24847 4.38099 4.71187 4.2133C5.17528 4.04561 5.66916 3.98901 6.15658 4.04773H12.8908C13.0821 4.04773 13.2656 4.12675 13.4009 4.2674C13.5363 4.40805 13.6123 4.59882 13.6123 4.79773C13.6123 4.99664 13.5363 5.18741 13.4009 5.32806C13.2656 5.46871 13.0821 5.54773 12.8908 5.54773H6.15658C4.63947 5.54773 3.99202 6.22073 3.99202 7.79773V17.0477L6.43557 14.5077C6.61721 14.3204 6.86272 14.2152 7.11861 14.2152C7.37449 14.2152 7.62001 14.3204 7.80164 14.5077L8.70595 15.4477C8.79586 15.5393 8.91675 15.5907 9.04266 15.5907C9.16856 15.5907 9.28945 15.5393 9.37937 15.4477L14.1318 10.5077C14.3134 10.3204 14.5589 10.2152 14.8148 10.2152C15.0707 10.2152 15.3162 10.3204 15.4978 10.5077L19.8654 15.0477V11.7977C19.8654 11.5988 19.9415 11.4081 20.0768 11.2674C20.2121 11.1267 20.3956 11.0477 20.587 11.0477C20.7783 11.0477 20.9618 11.1267 21.0972 11.2674C21.2325 11.4081 21.3085 11.5988 21.3085 11.7977ZM8.0739 8.54773C7.75449 8.54866 7.4485 8.68132 7.22312 8.91658C6.99774 9.15184 6.8714 9.47046 6.87185 9.80247C6.87229 10.1345 6.99949 10.4527 7.2255 10.6873C7.45151 10.922 7.75786 11.0537 8.07727 11.0537C8.39667 11.0537 8.70302 10.922 8.92903 10.6873C9.15504 10.4527 9.28224 10.1345 9.28268 9.80247C9.28313 9.47046 9.15679 9.15184 8.93141 8.91658C8.70603 8.68132 8.40004 8.54866 8.08063 8.54773H8.0739ZM16.7389 6.54773H17.9414V7.79773C17.9414 7.99664 18.0174 8.18741 18.1527 8.32806C18.288 8.46871 18.4716 8.54773 18.6629 8.54773C18.8543 8.54773 19.0378 8.46871 19.1731 8.32806C19.3084 8.18741 19.3844 7.99664 19.3844 7.79773V6.54773H20.587C20.7783 6.54773 20.9618 6.46871 21.0972 6.32806C21.2325 6.18741 21.3085 5.99664 21.3085 5.79773C21.3085 5.59882 21.2325 5.40805 21.0972 5.2674C20.9618 5.12675 20.7783 5.04773 20.587 5.04773H19.3844V3.79773C19.3844 3.59882 19.3084 3.40805 19.1731 3.2674C19.0378 3.12675 18.8543 3.04773 18.6629 3.04773C18.4716 3.04773 18.288 3.12675 18.1527 3.2674C18.0174 3.40805 17.9414 3.59882 17.9414 3.79773V5.04773H16.7389C16.5475 5.04773 16.364 5.12675 16.2287 5.2674C16.0934 5.40805 16.0173 5.59882 16.0173 5.79773C16.0173 5.99664 16.0934 6.18741 16.2287 6.32806C16.364 6.46871 16.5475 6.54773 16.7389 6.54773Z" fill="#0D0D0D"/>
</g>
</svg>
