<svg width="100" height="100" viewBox="0 0 100 100" fill="none" xmlns="http://www.w3.org/2000/svg">
<path d="M67.7995 72.5976C66.7885 75.1256 59.2733 92.9918 47.6466 93.3334H38.2105C33.6609 93.3334 29.9875 89.6099 29.9875 84.9981V75.0231C29.9875 74.3057 30.8638 73.9982 31.3019 74.5448C32.6162 76.1504 34.5371 77.2094 36.6602 77.346C36.8287 77.346 37.0309 77.346 37.1995 77.346H60.6887C63.7891 77.346 66.5863 75.433 67.7658 72.5635L67.7995 72.5976Z" fill="#31D366"/>
<path opacity="0.38" d="M67.7995 72.5977C66.8222 75.0231 59.8462 91.6254 48.9946 93.231V77.3802H60.7224C63.8228 77.3802 66.62 75.4672 67.7995 72.5977Z" fill="url(#paint0_linear_2004_200)"/>
<path d="M70.866 19.7162C61.1603 13.5331 46.0288 25.3528 43.7709 27.1975L25.5052 40.657C23.5169 42.1259 22.034 44.4147 22.0003 46.806C20.5175 40.9302 17.8889 26.5143 25.8085 20.7069L41.5129 9.12628C45.9614 5.84682 52.0275 5.84682 56.4759 9.12628L70.866 19.7162Z" fill="#31D366"/>
<path opacity="0.38" d="M40.3672 29.6226L25.4716 40.5884C23.4833 42.0573 22.0004 44.3461 21.9667 46.7374C21.2927 44.0045 20.3491 39.3927 20.3491 34.6785C20.3491 29.281 21.5623 23.7469 25.8086 20.6383L31.2007 16.6756L40.4009 29.6568L40.3672 29.6226Z" fill="url(#paint1_linear_2004_200)"/>
<path d="M92.6701 46.8056L86.8736 64.8769C89.9067 53.7062 74.3371 41.9889 72.652 40.7591C72.652 40.7591 72.5846 40.725 72.5509 40.6908L53.5439 26.6848C50.8478 24.7034 47.2082 24.7034 44.5458 26.6848L43.8381 27.2313C46.0961 25.3866 61.2276 13.5669 70.9333 19.7501L88.0869 32.3897C92.5353 35.6691 94.4226 41.5107 92.7038 46.8398L92.6701 46.8056Z" fill="#31D366"/>
<path opacity="0.38" d="M73.0902 21.3556L63.3507 33.9269L53.5102 26.6848C50.8141 24.7034 47.1745 24.7034 44.5122 26.6848L43.8044 27.2313C46.0624 25.3866 61.1939 13.5669 70.8996 19.7501L73.1239 21.3898L73.0902 21.3556Z" fill="url(#paint2_linear_2004_200)"/>
<path d="M86.8738 64.877L80.6056 84.383C78.8868 89.7121 74.0003 93.299 68.5071 93.299H47.6802C59.3068 92.9574 66.8221 75.0911 67.8331 72.5632C67.8331 72.5291 67.8331 72.4949 67.8668 72.4607C67.8668 72.4607 67.8668 72.3924 67.8668 72.3583C67.8668 72.2899 67.9005 72.2558 67.9005 72.2558C67.9342 72.1533 67.9679 72.0508 68.0016 71.9483L75.2472 49.2995C76.2582 46.1567 75.1798 42.7064 72.6185 40.7251C74.3036 41.9549 89.8732 53.6721 86.8401 64.8428L86.8738 64.877Z" fill="#31D366"/>
<path opacity="0.38" d="M86.8736 64.877L86.0984 67.3024L71.3376 61.7L75.2806 49.3337C76.2916 46.1909 75.2132 42.7406 72.652 40.7593C74.337 41.9891 89.9066 53.7063 86.8736 64.877Z" fill="url(#paint3_linear_2004_200)"/>
<path d="M21.9666 46.7377V70.5822H17.1812C11.351 70.5822 6.66663 65.7996 6.66663 59.9239V38.744V38.6757C6.66663 36.4552 7.61024 34.2348 9.69967 32.6292C9.80077 32.5609 9.86817 32.4926 9.96927 32.4242L28.8078 18.4865C18.327 26.2069 22.4722 43.4241 21.9666 46.7377Z" fill="#31D366"/>
<path d="M54.3191 38.2658L40.603 52.8867L47.8486 53.6041L39.7942 67.3369L58.0262 51.0079L49.1966 50.3247L54.3191 38.2658Z" fill="#31D366"/>
<defs>
<linearGradient id="paint0_linear_2004_200" x1="64.2946" y1="82.9143" x2="53.2746" y2="82.9143" gradientUnits="userSpaceOnUse">
<stop/>
<stop offset="1" stop-opacity="0"/>
</linearGradient>
<linearGradient id="paint1_linear_2004_200" x1="19.8099" y1="36.489" x2="30.3157" y2="29.2442" gradientUnits="userSpaceOnUse">
<stop/>
<stop offset="1" stop-opacity="0"/>
</linearGradient>
<linearGradient id="paint2_linear_2004_200" x1="52.634" y1="20.4333" x2="63.537" y2="27.3359" gradientUnits="userSpaceOnUse">
<stop/>
<stop offset="1" stop-opacity="0"/>
</linearGradient>
<linearGradient id="paint3_linear_2004_200" x1="81.1445" y1="49.4362" x2="76.8664" y2="60.1573" gradientUnits="userSpaceOnUse">
<stop/>
<stop offset="1" stop-opacity="0"/>
</linearGradient>
</defs>
</svg>
