<svg width="24" height="24" viewBox="0 0 24 24" fill="none" xmlns="http://www.w3.org/2000/svg">
<path d="M7.60029 22L21.1996 22C21.6417 22 22 21.6418 22 21.1998L22 7.60459C22 7.16268 21.6417 6.80444 21.1996 6.80444L7.60029 6.80444C7.15825 6.80444 6.7999 7.16268 6.7999 7.60459L6.7999 21.1998C6.7999 21.6418 7.15825 22 7.60029 22Z" fill="#0D0D0D"/>
<path d="M7.44741 3.60474L11.752 3.60474L11.752 2.00518L7.44742 2.00517L7.44741 3.60474Z" fill="#0D0D0D"/>
<path d="M15.5984 5.60449L17.1992 5.60449L17.1992 2.79908C17.1989 2.58708 17.1144 2.38387 16.9644 2.23407C16.8143 2.08428 16.6109 2.00015 16.3988 2.00015L13.5987 2.00015L13.5987 3.60533L15.5984 3.60533L15.5984 5.60449Z" fill="#0D0D0D"/>
<path d="M3.59985 3.60509L5.59961 3.60509L5.59961 2.00601L2.79947 2.00601C2.58752 2.00601 2.38424 2.09019 2.23437 2.24001C2.08449 2.38984 2.00029 2.59305 2.00029 2.80494L2.00029 5.61035L3.59985 5.61035L3.59985 3.60509Z" fill="#0D0D0D"/>
<path d="M2.00005 11.7554L3.59961 11.7554L3.59961 7.45212L2.00005 7.45212L2.00005 11.7554Z" fill="#0D0D0D"/>
<path d="M2.79947 17.2017L5.59961 17.2017L5.59961 15.6014L3.59985 15.6014L3.59985 13.6022L2.00029 13.6022L2.00029 16.4076C2.0019 16.6186 2.08677 16.8203 2.23644 16.969C2.3861 17.1177 2.58846 17.2013 2.79947 17.2017Z" fill="#0D0D0D"/>
</svg>
