<svg width="40" height="40" viewBox="0 0 40 40" fill="none" xmlns="http://www.w3.org/2000/svg">
<g clip-path="url(#clip0_533_1710)">
<path d="M30.8696 31.3047C30.639 31.3046 30.4178 31.213 30.2548 31.0499L16.3418 17.1369C16.1834 16.9729 16.0957 16.7532 16.0977 16.5252C16.0997 16.2972 16.1911 16.0791 16.3523 15.9179C16.5136 15.7567 16.7317 15.6652 16.9597 15.6632C17.1877 15.6613 17.4073 15.7489 17.5713 15.9073L31.4844 29.8203C31.6059 29.942 31.6887 30.0969 31.7223 30.2655C31.7558 30.4342 31.7386 30.609 31.6728 30.7679C31.607 30.9267 31.4956 31.0625 31.3526 31.1581C31.2096 31.2536 31.0415 31.3047 30.8696 31.3047Z" fill="url(#paint0_linear_533_1710)"/>
<path d="M22.1736 40C24.0946 40 25.6518 38.4427 25.6518 36.5217C25.6518 34.6007 24.0946 33.0435 22.1736 33.0435C20.2526 33.0435 18.6953 34.6007 18.6953 36.5217C18.6953 38.4427 20.2526 40 22.1736 40Z" fill="url(#paint1_linear_533_1710)"/>
<path d="M36.0876 40C38.0086 40 39.5659 38.4427 39.5659 36.5217C39.5659 34.6007 38.0086 33.0435 36.0876 33.0435C34.1666 33.0435 32.6094 34.6007 32.6094 36.5217C32.6094 38.4427 34.1666 40 36.0876 40Z" fill="url(#paint2_linear_533_1710)"/>
<path d="M34.3474 13.9131C36.2684 13.9131 37.8257 12.3558 37.8257 10.4348C37.8257 8.51381 36.2684 6.95654 34.3474 6.95654C32.4264 6.95654 30.8691 8.51381 30.8691 10.4348C30.8691 12.3558 32.4264 13.9131 34.3474 13.9131Z" fill="url(#paint3_linear_533_1710)"/>
<g filter="url(#filter0_i_533_1710)">
<path d="M29.1292 16.5221H21.3032C21.0725 16.5221 20.8514 16.4305 20.6883 16.2674C20.5252 16.1043 20.4336 15.8831 20.4336 15.6525C20.4336 15.4219 20.5252 15.2007 20.6883 15.0376C20.8514 14.8746 21.0725 14.7829 21.3032 14.7829H28.7692L32.8623 10.6899C33.0263 10.5315 33.2459 10.4439 33.4739 10.4458C33.7019 10.4478 33.92 10.5393 34.0813 10.7005C34.2425 10.8617 34.3339 11.0798 34.3359 11.3078C34.3379 11.5358 34.2503 11.7555 34.0919 11.9195L29.744 16.2673C29.581 16.4304 29.3598 16.522 29.1292 16.5221Z" fill="url(#paint4_linear_533_1710)" fill-opacity="0.32"/>
</g>
<path d="M28.7692 14.9913H28.8555L28.9166 14.9303L33.0082 10.8386C33.1328 10.7189 33.2993 10.6527 33.4721 10.6542C33.6455 10.6557 33.8113 10.7252 33.9339 10.8478C34.0565 10.9704 34.1261 11.1362 34.1276 11.3096C34.1291 11.4824 34.0629 11.6489 33.9432 11.7735L29.5967 16.12L29.5967 16.12C29.4727 16.244 29.3046 16.3137 29.1292 16.3137C29.1292 16.3137 29.1292 16.3137 29.1292 16.3137H21.3032C21.1278 16.3137 20.9596 16.2441 20.8356 16.1201C20.7116 15.9961 20.6419 15.8279 20.6419 15.6525C20.6419 15.4771 20.7116 15.3089 20.8356 15.1849C20.9596 15.0609 21.1278 14.9913 21.3032 14.9913H28.7692Z" stroke="url(#paint5_linear_533_1710)" stroke-opacity="0.1" stroke-width="0.416667"/>
<g filter="url(#filter1_i_533_1710)">
<path d="M36.0863 34.7826C35.8557 34.7826 35.6345 34.6909 35.4714 34.5279C35.3083 34.3648 35.2167 34.1436 35.2167 33.913V30.7947L30.5089 26.0869H28.2602C28.0296 26.0869 27.8084 25.9953 27.6453 25.8322C27.4822 25.6691 27.3906 25.448 27.3906 25.2173C27.3906 24.9867 27.4822 24.7655 27.6453 24.6025C27.8084 24.4394 28.0296 24.3478 28.2602 24.3478H30.8689C31.0995 24.3478 31.3206 24.4395 31.4837 24.6026L36.7011 29.82C36.8641 29.983 36.9558 30.2041 36.9558 30.4347V33.913C36.9558 34.1436 36.8642 34.3648 36.7012 34.5279C36.5381 34.6909 36.3169 34.7826 36.0863 34.7826Z" fill="url(#paint6_linear_533_1710)" fill-opacity="0.32"/>
</g>
<path d="M35.425 30.7947V30.7084L35.364 30.6474L30.6562 25.9396L30.5952 25.8786H30.5089H28.2602C28.0848 25.8786 27.9166 25.8089 27.7926 25.6849C27.6686 25.5609 27.599 25.3927 27.599 25.2173C27.599 25.042 27.6686 24.8738 27.7926 24.7498C27.9166 24.6258 28.0848 24.5561 28.2602 24.5561H30.8688C30.8689 24.5561 30.8689 24.5561 30.8689 24.5561C31.0442 24.5562 31.2124 24.6258 31.3363 24.7499L31.3364 24.7499L36.5537 29.9673L36.5538 29.9673C36.6778 30.0913 36.7475 30.2594 36.7475 30.4347C36.7475 30.4347 36.7475 30.4348 36.7475 30.4348V33.913C36.7475 34.0884 36.6778 34.2566 36.5538 34.3806C36.4298 34.5046 36.2616 34.5742 36.0863 34.5742C35.9109 34.5742 35.7427 34.5046 35.6187 34.3806C35.4947 34.2566 35.425 34.0884 35.425 33.913V30.7947Z" stroke="url(#paint7_linear_533_1710)" stroke-opacity="0.1" stroke-width="0.416667"/>
<g filter="url(#filter2_i_533_1710)">
<path d="M20.329 35.547C20.0984 35.5469 19.8772 35.4553 19.7142 35.2922L15.4716 31.0496C15.3085 30.8865 15.2168 30.6654 15.2168 30.4348V20.8696C15.2168 20.6389 15.3084 20.4178 15.4715 20.2547C15.6346 20.0916 15.8557 20 16.0864 20C16.317 20 16.5382 20.0916 16.7012 20.2547C16.8643 20.4178 16.9559 20.6389 16.9559 20.8696V30.0748L20.9438 34.0626C21.0653 34.1842 21.1481 34.3391 21.1817 34.5078C21.2152 34.6765 21.198 34.8513 21.1322 35.0101C21.0664 35.169 20.9549 35.3048 20.812 35.4003C20.669 35.4959 20.5009 35.5469 20.329 35.547Z" fill="url(#paint8_linear_533_1710)" fill-opacity="0.32"/>
</g>
<path d="M19.8615 35.1449L19.8615 35.1449C19.9855 35.2689 20.1536 35.3386 20.3289 35.3386L19.8615 35.1449ZM19.8615 35.1449L15.6189 30.9023L15.6189 30.9022M19.8615 35.1449L15.6189 30.9022M15.6189 30.9022C15.4949 30.7783 15.4252 30.6101 15.4251 30.4348C15.4251 30.4348 15.4251 30.4348 15.4251 30.4347V20.8696C15.4251 20.6942 15.4948 20.526 15.6188 20.402C15.7428 20.278 15.911 20.2083 16.0864 20.2083C16.2617 20.2083 16.4299 20.278 16.5539 20.402C16.6779 20.526 16.7476 20.6942 16.7476 20.8696V30.0748V30.1611M15.6189 30.9022L16.7476 30.1611M16.7476 30.1611L16.8086 30.2221M16.7476 30.1611L16.8086 30.2221M16.8086 30.2221L20.7964 34.2099M16.8086 30.2221L20.7964 34.2099M20.7964 34.2099C20.7964 34.2099 20.7964 34.2099 20.7964 34.2099M20.7964 34.2099L20.7964 34.2099M20.7964 34.2099C20.8889 34.3024 20.9518 34.4202 20.9773 34.5484M20.7964 34.2099L20.9773 34.5484M20.9773 34.5484C21.0028 34.6767 20.9897 34.8096 20.9397 34.9304M20.9773 34.5484L20.9397 34.9304M20.9397 34.9304C20.8897 35.0512 20.8049 35.1545 20.6962 35.2271M20.9397 34.9304L20.6962 35.2271M20.6962 35.2271C20.5875 35.2998 20.4597 35.3386 20.329 35.3386L20.6962 35.2271Z" stroke="url(#paint9_linear_533_1710)" stroke-opacity="0.1" stroke-width="0.416667"/>
<g filter="url(#filter3_bi_533_1710)">
<path d="M31.4832 24.6026L29.744 22.8635C29.581 22.7004 29.3598 22.6087 29.1292 22.6087H27.3901C27.1595 22.6087 26.9383 22.5171 26.7752 22.354C26.6122 22.1909 26.5206 21.9698 26.5206 21.7391V20C26.5205 19.7694 26.4289 19.5483 26.2658 19.3852L19.1623 12.2817C19.4279 11.4007 19.5633 10.4855 19.564 9.56522C19.564 7.6734 19.003 5.82406 17.952 4.25107C16.901 2.67808 15.4071 1.45208 13.6593 0.728113C11.9114 0.00414449 9.9882 -0.185279 8.13273 0.183797C6.27726 0.552873 4.5729 1.46387 3.23519 2.80159C1.89747 4.13931 0.986467 5.84367 0.617391 7.69914C0.248315 9.55461 0.437738 11.4779 1.16171 13.2257C1.88568 14.9735 3.11167 16.4674 4.68466 17.5184C6.25766 18.5694 8.10699 19.1304 9.99881 19.1304C10.9191 19.1297 11.8343 18.9943 12.7153 18.7287L15.7258 21.7391H17.8249C18.0555 21.7391 18.2767 21.8307 18.4398 21.9938C18.6029 22.1569 18.6945 22.3781 18.6945 22.6087V24.7078L19.8188 25.8322C19.9818 25.9953 20.203 26.0869 20.4336 26.087H22.1727C22.4033 26.087 22.6245 26.1786 22.7876 26.3417C22.9507 26.5047 23.0423 26.7259 23.0423 26.9565V28.6957C23.0423 28.9263 23.134 29.1474 23.2971 29.3104L25.0362 31.0496C25.1992 31.2127 25.4204 31.3043 25.651 31.3043H30.8684C31.099 31.3043 31.3202 31.2127 31.4832 31.0497C31.6463 30.8866 31.7379 30.6654 31.7379 30.4348V25.2174C31.7379 24.9868 31.6462 24.7656 31.4832 24.6026ZM7.8249 10.4348C7.22296 10.4348 6.63453 10.2563 6.13404 9.92187C5.63354 9.58745 5.24345 9.11212 5.01309 8.556C4.78274 7.99987 4.72247 7.38793 4.8399 6.79755C4.95734 6.20718 5.2472 5.66488 5.67284 5.23924C6.09848 4.81361 6.64077 4.52374 7.23115 4.40631C7.82152 4.28888 8.43347 4.34915 8.98959 4.5795C9.54571 4.80985 10.021 5.19994 10.3555 5.70044C10.6899 6.20094 10.8684 6.78937 10.8684 7.39131C10.8684 8.19849 10.5477 8.97261 9.97696 9.54337C9.4062 10.1141 8.63208 10.4348 7.8249 10.4348Z" fill="url(#paint10_linear_533_1710)" fill-opacity="0.32"/>
<path d="M31.3358 24.7499L31.3359 24.7499C31.4599 24.8739 31.5296 25.0421 31.5296 25.2174C31.5296 25.2174 31.5296 25.2174 31.5296 25.2174V30.4348C31.5296 30.6102 31.4599 30.7783 31.3359 30.9023C31.2119 31.0264 31.0437 31.096 30.8684 31.096H25.651C25.651 31.096 25.651 31.096 25.651 31.096C25.4756 31.096 25.3075 31.0263 25.1835 30.9023L25.1835 30.9023L23.4444 29.1631L23.4444 29.1631C23.3204 29.0391 23.2507 28.871 23.2506 28.6957C23.2506 28.6956 23.2506 28.6956 23.2506 28.6956V26.9565C23.2506 26.6707 23.1371 26.3965 22.9349 26.1943C22.7328 25.9922 22.4586 25.8786 22.1727 25.8786H20.4336C20.4336 25.8786 20.4336 25.8786 20.4336 25.8786C20.2583 25.8786 20.0901 25.8089 19.9661 25.6849L19.9661 25.6849L18.9028 24.6215V22.6087C18.9028 22.3228 18.7892 22.0487 18.5871 21.8465C18.3849 21.6444 18.1108 21.5308 17.8249 21.5308H15.8121L12.8626 18.5814L12.7745 18.4933L12.6552 18.5292C11.7936 18.789 10.8986 18.9214 9.99864 18.9221C8.14809 18.9221 6.33909 18.3733 4.80041 17.3452C3.26168 16.317 2.06238 14.8557 1.35418 13.1459C0.645981 11.4362 0.460684 9.55484 0.821721 7.73978C1.18276 5.92473 2.07392 4.25749 3.3825 2.94891C4.69108 1.64032 6.35832 0.749165 8.17338 0.388128C9.98843 0.0270901 11.8698 0.212388 13.5795 0.920588C15.2893 1.62879 16.7506 2.82808 17.7788 4.36682C18.8069 5.9055 19.3557 7.71449 19.3557 9.56505C19.355 10.465 19.2226 11.36 18.9628 12.2216L18.9268 12.3409L19.015 12.4291L26.1185 19.5325L26.1185 19.5326C26.2425 19.6565 26.3122 19.8247 26.3122 20C26.3122 20 26.3122 20 26.3122 20V21.7391C26.3122 22.025 26.4258 22.2992 26.6279 22.5013C26.8301 22.7035 27.1042 22.817 27.3901 22.817H29.1292C29.1292 22.817 29.1292 22.817 29.1292 22.817C29.3046 22.8171 29.4727 22.8868 29.5967 23.0108L29.5967 23.0108L31.3358 24.7499ZM6.01829 10.0951C6.55305 10.4524 7.18175 10.6431 7.8249 10.6431C8.68734 10.6431 9.51445 10.3005 10.1243 9.69069C10.7341 9.08085 11.0767 8.25374 11.0767 7.39131C11.0767 6.74816 10.886 6.11946 10.5287 5.5847C10.1714 5.04994 9.66351 4.63315 9.06932 4.38703C8.47512 4.1409 7.82129 4.07651 7.1905 4.20198C6.55971 4.32745 5.9803 4.63716 5.52552 5.09193C5.07075 5.5467 4.76104 6.12612 4.63557 6.75691C4.5101 7.3877 4.5745 8.04153 4.82062 8.63572C5.06674 9.22991 5.48353 9.73778 6.01829 10.0951Z" stroke="url(#paint11_linear_533_1710)" stroke-opacity="0.1" stroke-width="0.416667"/>
</g>
<g filter="url(#filter4_i_533_1710)">
<path d="M30.8696 31.3047C30.639 31.3046 30.4178 31.213 30.2548 31.0499L16.3418 17.1369C16.1834 16.9729 16.0957 16.7532 16.0977 16.5252C16.0997 16.2972 16.1911 16.0791 16.3523 15.9179C16.5136 15.7567 16.7317 15.6652 16.9597 15.6632C17.1877 15.6613 17.4073 15.7489 17.5713 15.9073L31.4844 29.8203C31.6059 29.942 31.6887 30.0969 31.7223 30.2655C31.7558 30.4342 31.7386 30.609 31.6728 30.7679C31.607 30.9267 31.4956 31.0625 31.3526 31.1581C31.2096 31.2536 31.0415 31.3047 30.8696 31.3047Z" fill="white" fill-opacity="0.16"/>
</g>
</g>
<defs>
<filter id="filter0_i_533_1710" x="20.4336" y="10.4458" width="13.9023" height="6.57629" filterUnits="userSpaceOnUse" color-interpolation-filters="sRGB">
<feFlood flood-opacity="0" result="BackgroundImageFix"/>
<feBlend mode="normal" in="SourceGraphic" in2="BackgroundImageFix" result="shape"/>
<feColorMatrix in="SourceAlpha" type="matrix" values="0 0 0 0 0 0 0 0 0 0 0 0 0 0 0 0 0 0 127 0" result="hardAlpha"/>
<feOffset dy="0.5"/>
<feGaussianBlur stdDeviation="0.25"/>
<feComposite in2="hardAlpha" operator="arithmetic" k2="-1" k3="1"/>
<feColorMatrix type="matrix" values="0 0 0 0 1 0 0 0 0 1 0 0 0 0 1 0 0 0 0.4 0"/>
<feBlend mode="normal" in2="shape" result="effect1_innerShadow_533_1710"/>
</filter>
<filter id="filter1_i_533_1710" x="27.3906" y="24.3478" width="9.56445" height="10.9348" filterUnits="userSpaceOnUse" color-interpolation-filters="sRGB">
<feFlood flood-opacity="0" result="BackgroundImageFix"/>
<feBlend mode="normal" in="SourceGraphic" in2="BackgroundImageFix" result="shape"/>
<feColorMatrix in="SourceAlpha" type="matrix" values="0 0 0 0 0 0 0 0 0 0 0 0 0 0 0 0 0 0 127 0" result="hardAlpha"/>
<feOffset dy="0.5"/>
<feGaussianBlur stdDeviation="0.25"/>
<feComposite in2="hardAlpha" operator="arithmetic" k2="-1" k3="1"/>
<feColorMatrix type="matrix" values="0 0 0 0 1 0 0 0 0 1 0 0 0 0 1 0 0 0 0.4 0"/>
<feBlend mode="normal" in2="shape" result="effect1_innerShadow_533_1710"/>
</filter>
<filter id="filter2_i_533_1710" x="15.2168" y="20" width="5.98242" height="16.047" filterUnits="userSpaceOnUse" color-interpolation-filters="sRGB">
<feFlood flood-opacity="0" result="BackgroundImageFix"/>
<feBlend mode="normal" in="SourceGraphic" in2="BackgroundImageFix" result="shape"/>
<feColorMatrix in="SourceAlpha" type="matrix" values="0 0 0 0 0 0 0 0 0 0 0 0 0 0 0 0 0 0 127 0" result="hardAlpha"/>
<feOffset dy="0.5"/>
<feGaussianBlur stdDeviation="0.25"/>
<feComposite in2="hardAlpha" operator="arithmetic" k2="-1" k3="1"/>
<feColorMatrix type="matrix" values="0 0 0 0 1 0 0 0 0 1 0 0 0 0 1 0 0 0 0.4 0"/>
<feBlend mode="normal" in2="shape" result="effect1_innerShadow_533_1710"/>
</filter>
<filter id="filter3_bi_533_1710" x="-2.56641" y="-3" width="37.3047" height="37.3043" filterUnits="userSpaceOnUse" color-interpolation-filters="sRGB">
<feFlood flood-opacity="0" result="BackgroundImageFix"/>
<feGaussianBlur in="BackgroundImageFix" stdDeviation="1.5"/>
<feComposite in2="SourceAlpha" operator="in" result="effect1_backgroundBlur_533_1710"/>
<feBlend mode="normal" in="SourceGraphic" in2="effect1_backgroundBlur_533_1710" result="shape"/>
<feColorMatrix in="SourceAlpha" type="matrix" values="0 0 0 0 0 0 0 0 0 0 0 0 0 0 0 0 0 0 127 0" result="hardAlpha"/>
<feOffset dy="0.5"/>
<feGaussianBlur stdDeviation="1"/>
<feComposite in2="hardAlpha" operator="arithmetic" k2="-1" k3="1"/>
<feColorMatrix type="matrix" values="0 0 0 0 1 0 0 0 0 1 0 0 0 0 1 0 0 0 0.4 0"/>
<feBlend mode="normal" in2="shape" result="effect2_innerShadow_533_1710"/>
</filter>
<filter id="filter4_i_533_1710" x="16.0977" y="15.6632" width="15.6406" height="16.1415" filterUnits="userSpaceOnUse" color-interpolation-filters="sRGB">
<feFlood flood-opacity="0" result="BackgroundImageFix"/>
<feBlend mode="normal" in="SourceGraphic" in2="BackgroundImageFix" result="shape"/>
<feColorMatrix in="SourceAlpha" type="matrix" values="0 0 0 0 0 0 0 0 0 0 0 0 0 0 0 0 0 0 127 0" result="hardAlpha"/>
<feOffset dy="0.5"/>
<feGaussianBlur stdDeviation="0.25"/>
<feComposite in2="hardAlpha" operator="arithmetic" k2="-1" k3="1"/>
<feColorMatrix type="matrix" values="0 0 0 0 1 0 0 0 0 1 0 0 0 0 1 0 0 0 0.4 0"/>
<feBlend mode="normal" in2="shape" result="effect1_innerShadow_533_1710"/>
</filter>
<linearGradient id="paint0_linear_533_1710" x1="31.739" y1="23.484" x2="16.0977" y2="23.484" gradientUnits="userSpaceOnUse">
<stop stop-color="#5495FC"/>
<stop offset="1" stop-color="#31D366"/>
</linearGradient>
<linearGradient id="paint1_linear_533_1710" x1="25.6518" y1="36.5217" x2="18.6953" y2="36.5217" gradientUnits="userSpaceOnUse">
<stop stop-color="#5495FC"/>
<stop offset="1" stop-color="#31D366"/>
</linearGradient>
<linearGradient id="paint2_linear_533_1710" x1="39.5659" y1="36.5217" x2="32.6094" y2="36.5217" gradientUnits="userSpaceOnUse">
<stop stop-color="#5495FC"/>
<stop offset="1" stop-color="#31D366"/>
</linearGradient>
<linearGradient id="paint3_linear_533_1710" x1="37.8257" y1="10.4348" x2="30.8691" y2="10.4348" gradientUnits="userSpaceOnUse">
<stop stop-color="#5495FC"/>
<stop offset="1" stop-color="#31D366"/>
</linearGradient>
<linearGradient id="paint4_linear_533_1710" x1="20.4336" y1="10.4458" x2="33.467" y2="18.0177" gradientUnits="userSpaceOnUse">
<stop stop-color="#83E9FF"/>
<stop offset="0.453125" stop-color="#CEFFDE"/>
</linearGradient>
<linearGradient id="paint5_linear_533_1710" x1="20.868" y1="10.722" x2="34.336" y2="10.722" gradientUnits="userSpaceOnUse">
<stop stop-color="#3CDEB6"/>
<stop offset="0.65625" stop-color="#5495FC"/>
</linearGradient>
<linearGradient id="paint6_linear_533_1710" x1="27.3906" y1="24.3478" x2="38.7682" y2="26.996" gradientUnits="userSpaceOnUse">
<stop stop-color="#83E9FF"/>
<stop offset="0.453125" stop-color="#CEFFDE"/>
</linearGradient>
<linearGradient id="paint7_linear_533_1710" x1="27.6895" y1="24.8221" x2="36.9558" y2="24.8221" gradientUnits="userSpaceOnUse">
<stop stop-color="#3CDEB6"/>
<stop offset="0.65625" stop-color="#5495FC"/>
</linearGradient>
<linearGradient id="paint8_linear_533_1710" x1="15.2168" y1="20" x2="22.6463" y2="20.7258" gradientUnits="userSpaceOnUse">
<stop stop-color="#83E9FF"/>
<stop offset="0.453125" stop-color="#CEFFDE"/>
</linearGradient>
<linearGradient id="paint9_linear_533_1710" x1="15.4037" y1="20.7067" x2="21.1983" y2="20.7067" gradientUnits="userSpaceOnUse">
<stop stop-color="#3CDEB6"/>
<stop offset="0.65625" stop-color="#5495FC"/>
</linearGradient>
<linearGradient id="paint10_linear_533_1710" x1="0.433594" y1="0" x2="37.3092" y2="9.36339" gradientUnits="userSpaceOnUse">
<stop stop-color="#42DDFF"/>
<stop offset="0.453125" stop-color="#CEFFDE"/>
</linearGradient>
<linearGradient id="paint11_linear_533_1710" x1="1.41185" y1="1.42293" x2="31.7379" y2="1.42293" gradientUnits="userSpaceOnUse">
<stop stop-color="#3CDEB6"/>
<stop offset="0.65625" stop-color="#5495FC"/>
</linearGradient>
<clipPath id="clip0_533_1710">
<rect width="40" height="40" fill="white"/>
</clipPath>
</defs>
</svg>
