<svg width="24" height="24" viewBox="0 0 24 24" fill="none" xmlns="http://www.w3.org/2000/svg">
<path d="M21.7491 11V17C21.8078 17.5067 21.7512 18.02 21.5835 18.5017C21.4158 18.9834 21.1414 19.421 20.7807 19.7816C20.42 20.1423 19.9825 20.4167 19.5008 20.5844C19.0191 20.7521 18.5057 20.8087 17.9991 20.75H5.99906C5.4924 20.8087 4.97902 20.7521 4.49732 20.5844C4.01563 20.4167 3.57808 20.1423 3.21742 19.7816C2.85676 19.421 2.58232 18.9834 2.41463 18.5017C2.24694 18.02 2.19034 17.5067 2.24906 17V7C2.19034 6.49334 2.24694 5.97996 2.41463 5.49826C2.58232 5.01657 2.85676 4.57902 3.21742 4.21836C3.57808 3.8577 4.01563 3.58326 4.49732 3.41557C4.97902 3.24788 5.4924 3.19128 5.99906 3.25H13.9991C14.198 3.25 14.3887 3.32902 14.5294 3.46967C14.67 3.61032 14.7491 3.80109 14.7491 4C14.7491 4.19891 14.67 4.38968 14.5294 4.53033C14.3887 4.67098 14.198 4.75 13.9991 4.75H5.99906C4.42206 4.75 3.74906 5.423 3.74906 7V16.25L6.28906 13.71C6.47787 13.5226 6.73307 13.4175 6.99906 13.4175C7.26505 13.4175 7.52025 13.5226 7.70906 13.71L8.64906 14.65C8.74252 14.7416 8.86818 14.7929 8.99906 14.7929C9.12994 14.7929 9.2556 14.7416 9.34906 14.65L14.2891 9.71C14.4779 9.52265 14.7331 9.41752 14.9991 9.41752C15.265 9.41752 15.5203 9.52265 15.7091 9.71L20.2491 14.25V11C20.2491 10.8011 20.3281 10.6103 20.4687 10.4697C20.6094 10.329 20.8001 10.25 20.9991 10.25C21.198 10.25 21.3887 10.329 21.5294 10.4697C21.67 10.6103 21.7491 10.8011 21.7491 11ZM7.99206 7.75C7.66005 7.75093 7.34198 7.88359 7.1077 8.11885C6.87342 8.35411 6.7421 8.67273 6.74256 9.00475C6.74302 9.33676 6.87524 9.65501 7.11017 9.88962C7.34511 10.1242 7.66355 10.256 7.99556 10.256C8.32757 10.256 8.64601 10.1242 8.88095 9.88962C9.11588 9.65501 9.24809 9.33676 9.24856 9.00475C9.24902 8.67273 9.1177 8.35411 8.88342 8.11885C8.64914 7.88359 8.33107 7.75093 7.99906 7.75H7.99206ZM18.9691 7.53C19.1098 7.67021 19.3004 7.74893 19.4991 7.74893C19.6977 7.74893 19.8883 7.67021 20.0291 7.53L21.5291 6.03C21.6615 5.88783 21.7337 5.69978 21.7302 5.50548C21.7268 5.31118 21.6481 5.12579 21.5107 4.98838C21.3733 4.85097 21.1879 4.77225 20.9936 4.76883C20.7993 4.7654 20.6112 4.83752 20.4691 4.97L20.2491 5.189V3C20.2491 2.80109 20.17 2.61032 20.0294 2.46967C19.8887 2.32902 19.698 2.25 19.4991 2.25C19.3001 2.25 19.1094 2.32902 18.9687 2.46967C18.8281 2.61032 18.7491 2.80109 18.7491 3V5.189L18.5291 4.97C18.3869 4.83752 18.1988 4.7654 18.0045 4.76883C17.8102 4.77225 17.6249 4.85097 17.4874 4.98838C17.35 5.12579 17.2713 5.31118 17.2679 5.50548C17.2645 5.69978 17.3366 5.88783 17.4691 6.03L18.9691 7.53Z" fill="black"/>
</svg>
